#!OML:ASF F:\VICON\USERDATA\INSTALL\rory3\rory3.ASF
:FULLY-SPECIFIED
:DEGREES
776
root -0.949122 17.6505 10.3525 8.76602 14.9906 -3.46779
lowerback 6.44841 5.25867 3.29013
upperback -0.869648 7.39933 2.6276
thorax -4.43829 3.62019 0.145925
lowerneck -3.14455 -14.9722 -23.75
upperneck -1.7194 -20.323 27.3722
head 5.62288 -9.82566 10.6321
rclavicle -4.17448e-014 -1.35174e-014
rhumerus -35.3398 -30.8055 -66.4962
rradius 25.2092
rwrist -1.38443
rhand -12.5921 22.778
rfingers 7.12502
rthumb 13.4864 -6.76537
lclavicle -4.17448e-014 -1.35174e-014
lhumerus -89.4163 47.4428 17.339
lradius 16.5086
lwrist -7.13246
lhand -7.4367 36.2677
lfingers 7.12502
lthumb 18.4508 -294.587
rfemur -26.7662 -5.26885 12.5589
rtibia 28.3502
rfoot -12.0872 -26.9611
rtoes 29.9977
lfemur -2.64785 -8.53024 -12.5324
ltibia 28.3019
lfoot -18.4178 2.61083
ltoes -13.4249
777
root -1.03826 17.6753 10.4248 8.99904 14.4987 -3.59892
lowerback 6.77163 5.17699 3.19067
upperback -1.15935 7.31223 2.58093
thorax -4.93081 3.567 0.11131
lowerneck -3.33744 -14.9018 -23.4704
upperneck -1.60817 -20.1999 27.2009
head 5.60128 -9.75129 10.5423
rclavicle -5.92378e-014 -1.19271e-014
rhumerus -35.7581 -29.7728 -67.5996
rradius 26.0052
rwrist -2.15363
rhand -12.9409 22.5843
rfingers 7.12502
rthumb 13.1502 -6.981
lclavicle -5.92378e-014 -1.19271e-014
lhumerus -88.1744 47.4548 18.5122
lradius 16.5738
lwrist -8.97266
lhand -6.42527 35.4524
lfingers 7.12502
lthumb 19.4235 -295.498
rfemur -26.9712 -4.30613 12.9751
rtibia 28.4507
rfoot -12.9661 -27.7566
rtoes 30.2568
lfemur -2.74612 -8.40327 -12.0313
ltibia 28.2939
lfoot -17.6901 2.59389
ltoes -14.5775
778
root -1.09634 17.6883 10.5322 9.07218 14.1333 -3.42536
lowerback 7.01219 4.94254 3.14112
upperback -1.45069 7.00951 2.35582
thorax -5.35329 3.40406 -0.1003
lowerneck -3.83659 -14.7303 -23.2414
upperneck -0.917295 -19.9819 27.0386
head 5.7866 -9.59566 10.4634
rclavicle 1.42727e-013 2.3059e-014
rhumerus -36.523 -28.5086 -68.7808
rradius 26.88
rwrist -2.80993
rhand -13.1768 22.5791
rfingers 7.12502
rthumb 12.9228 -7.00071
lclavicle 1.42727e-013 2.3059e-014
lhumerus -85.22 46.8264 22.0027
lradius 16.8917
lwrist -8.74362
lhand -5.25383 34.5541
lfingers 7.12502
lthumb 20.5495 -296.514
rfemur -26.7632 -4.87481 13.1771
rtibia 28.5247
rfoot -12.8346 -27.19
rtoes 29.3639
lfemur -2.38699 -8.54392 -12.069
ltibia 28.339
lfoot -17.4282 2.69823
ltoes -16.862
779
root -1.17422 17.7043 10.6166 9.34986 13.7038 -3.47082
lowerback 7.12247 4.7718 2.97641
upperback -1.65325 6.78452 2.38144
thorax -5.65482 3.2918 0.019177
lowerneck -4.90105 -14.7029 -23.1539
upperneck 0.01165 -19.8668 26.6446
head 6.14812 -9.44614 10.2637
rclavicle 2.46493e-014 1.43125e-014
rhumerus -36.3009 -27.2929 -69.7743
rradius 26.6672
rwrist -3.21722
rhand -13.2363 22.7557
rfingers 7.12502
rthumb 12.8654 -6.82776
lclavicle 2.46493e-014 1.43125e-014
lhumerus -79.6084 45.8444 29.7036
lradius 17.8808
lwrist -5.10512
lhand -6.15578 35.6911
lfingers 7.12502
lthumb 19.6826 -295.285
rfemur -26.9897 -4.59101 13.5353
rtibia 28.6124
rfoot -13.1625 -26.9702
rtoes 29.8091
lfemur -2.48871 -8.52262 -11.7187
ltibia 28.4115
lfoot -17.0458 2.67676
ltoes -18.6753
780
root -1.25945 17.7238 10.6999 9.62222 13.3201 -3.45588
lowerback 6.95606 4.65927 2.63677
upperback -1.58192 6.60073 2.5135
thorax -5.54171 3.21832 0.37904
lowerneck -5.66993 -14.7298 -23.1185
upperneck 0.252136 -19.7669 26.3875
head 6.28522 -9.34105 10.1369
rclavicle 4.01545e-014 8.74653e-015
rhumerus -35.469 -26.0782 -70.7586
rradius 26.2768
rwrist -3.73656
rhand -13.2602 22.6359
rfingers 7.12502
rthumb 12.8424 -6.94899
lclavicle 4.01545e-014 8.74653e-015
lhumerus -75.3758 45.2558 35.3172
lradius 18.6642
lwrist -3.70274
lhand -4.4575 34.6419
lfingers 7.12502
lthumb 21.3146 -296.51
rfemur -27.263 -4.30798 13.8475
rtibia 28.7407
rfoot -13.2795 -26.7064
rtoes 30.4519
lfemur -2.63459 -8.42969 -11.3796
ltibia 28.4617
lfoot -17.1568 1.70299
ltoes -7.90294
781
root -1.34583 17.7419 10.7865 9.87498 13.067 -3.29129
lowerback 6.87388 4.43813 2.24431
upperback -1.6054 6.2677 2.49884
thorax -5.56117 3.06687 0.621592
lowerneck -5.74225 -14.4767 -22.9899
upperneck -0.0164311 -19.3653 26.4929
head 6.12008 -9.14762 10.2372
rclavicle -6.2816e-014 1.59028e-014
rhumerus -35.0966 -24.7476 -71.9225
rradius 26.3119
rwrist -4.05619
rhand -13.219 22.1851
rfingers 7.12502
rthumb 12.8821 -7.39729
lclavicle -6.2816e-014 1.59028e-014
lhumerus -72.6874 44.7862 38.3179
lradius 19.1625
lwrist -4.14194
lhand -3.80884 33.6705
lfingers 7.12502
lthumb 21.9375 -297.553
rfemur -27.4228 -4.3122 14.0702
rtibia 28.8523
rfoot -13.1544 -26.2938
rtoes 30.705
lfemur -2.76479 -8.44847 -11.1856
ltibia 28.5725
lfoot -16.3654 2.40151
ltoes -21.1373
782
root -1.43253 17.757 10.8748 10.0813 12.6676 -3.18069
lowerback 6.98261 4.20353 1.8625
upperback -1.72424 5.92976 2.4938
thorax -5.78525 2.90987 0.850497
lowerneck -6.26622 -14.2778 -22.9055
upperneck 0.349525 -19.0491 26.4499
head 6.2262 -8.95084 10.2464
rclavicle -4.13472e-014 -2.78299e-014
rhumerus -34.8681 -23.4143 -72.9972
rradius 26.2314
rwrist -4.00271
rhand -13.2087 22.2776
rfingers 7.12502
rthumb 12.892 -7.30416
lclavicle -4.13472e-014 -2.78299e-014
lhumerus -70.7771 44.2539 40.2686
lradius 19.5391
lwrist -5.59783
lhand -3.41953 32.5948
lfingers 7.12502
lthumb 22.3113 -298.673
rfemur -27.5968 -4.25507 14.3783
rtibia 29.014
rfoot -12.773 -25.8761
rtoes 30.0124
lfemur -2.78026 -8.45298 -10.9969
ltibia 28.6495
lfoot -15.9141 1.72846
ltoes -12.2468
